<?xml version="1.0" encoding="utf-8"?>
<svg xmlns="http://www.w3.org/2000/svg" xmlns:xlink="http://www.w3.org/1999/xlink" style="margin: auto; background: rgba(0, 0, 0, 0) none repeat scroll 0% 0%; display: block; shape-rendering: auto;" width="197px" height="197px" viewBox="0 0 100 100" preserveAspectRatio="xMidYMid">
<g transform="rotate(0 50 50)">
  <rect x="43.5" y="12.5" rx="6.5" ry="10.5" width="13" height="21" fill="#f3b72e">
    <animate attributeName="opacity" values="1;0" keyTimes="0;1" dur="1.4285714285714284s" begin="-1.2499999999999998s" repeatCount="indefinite"></animate>
  </rect>
</g><g transform="rotate(45 50 50)">
  <rect x="43.5" y="12.5" rx="6.5" ry="10.5" width="13" height="21" fill="#f3b72e">
    <animate attributeName="opacity" values="1;0" keyTimes="0;1" dur="1.4285714285714284s" begin="-1.0714285714285714s" repeatCount="indefinite"></animate>
  </rect>
</g><g transform="rotate(90 50 50)">
  <rect x="43.5" y="12.5" rx="6.5" ry="10.5" width="13" height="21" fill="#f3b72e">
    <animate attributeName="opacity" values="1;0" keyTimes="0;1" dur="1.4285714285714284s" begin="-0.8928571428571428s" repeatCount="indefinite"></animate>
  </rect>
</g><g transform="rotate(135 50 50)">
  <rect x="43.5" y="12.5" rx="6.5" ry="10.5" width="13" height="21" fill="#f3b72e">
    <animate attributeName="opacity" values="1;0" keyTimes="0;1" dur="1.4285714285714284s" begin="-0.7142857142857142s" repeatCount="indefinite"></animate>
  </rect>
</g><g transform="rotate(180 50 50)">
  <rect x="43.5" y="12.5" rx="6.5" ry="10.5" width="13" height="21" fill="#f3b72e">
    <animate attributeName="opacity" values="1;0" keyTimes="0;1" dur="1.4285714285714284s" begin="-0.5357142857142857s" repeatCount="indefinite"></animate>
  </rect>
</g><g transform="rotate(225 50 50)">
  <rect x="43.5" y="12.5" rx="6.5" ry="10.5" width="13" height="21" fill="#f3b72e">
    <animate attributeName="opacity" values="1;0" keyTimes="0;1" dur="1.4285714285714284s" begin="-0.3571428571428571s" repeatCount="indefinite"></animate>
  </rect>
</g><g transform="rotate(270 50 50)">
  <rect x="43.5" y="12.5" rx="6.5" ry="10.5" width="13" height="21" fill="#f3b72e">
    <animate attributeName="opacity" values="1;0" keyTimes="0;1" dur="1.4285714285714284s" begin="-0.17857142857142855s" repeatCount="indefinite"></animate>
  </rect>
</g><g transform="rotate(315 50 50)">
  <rect x="43.5" y="12.5" rx="6.5" ry="10.5" width="13" height="21" fill="#f3b72e">
    <animate attributeName="opacity" values="1;0" keyTimes="0;1" dur="1.4285714285714284s" begin="0s" repeatCount="indefinite"></animate>
  </rect>
</g>
<!-- [ldio] generated by https://loading.io/ --></svg>